<svg width="1235" height="403" viewBox="0 0 1235 403" fill="none" xmlns="http://www.w3.org/2000/svg">
<path d="M281.753 397H8.90137V337.918L134.585 205.789C165.558 170.519 181.045 142.5 181.045 121.731C181.045 104.902 177.375 92.1009 170.034 83.3281C162.694 74.5553 152.041 70.1689 138.076 70.1689C124.29 70.1689 113.101 76.0771 104.507 87.8936C95.9131 99.5309 91.6162 114.122 91.6162 131.668H0.844727C0.844727 107.677 6.84245 85.5661 18.8379 65.335C30.8333 44.9248 47.4837 28.9906 68.7891 17.5322C90.0944 6.07389 113.906 0.344727 140.225 0.344727C182.477 0.344727 214.972 10.1022 237.71 29.6172C260.627 49.1322 272.085 77.1514 272.085 113.675C272.085 129.072 269.22 144.111 263.491 158.792C257.762 173.294 248.81 188.602 236.636 204.715C224.64 220.649 205.215 242.044 178.359 268.899L127.871 327.176H281.753V397ZM598.916 237.21C598.916 290.026 587.01 330.757 563.198 359.402C539.565 388.048 506.175 402.371 463.027 402.371C419.521 402.371 385.863 387.959 362.051 359.134C338.239 330.309 326.333 289.668 326.333 237.21V165.774C326.333 112.959 338.149 72.2279 361.782 43.582C385.594 14.9362 419.163 0.613281 462.49 0.613281C505.817 0.613281 539.386 15.0257 563.198 43.8506C587.01 72.6755 598.916 113.406 598.916 166.043V237.21ZM508.413 154.227C508.413 126.118 504.743 105.171 497.402 91.3848C490.062 77.4199 478.424 70.4375 462.49 70.4375C446.914 70.4375 435.545 76.8828 428.384 89.7734C421.401 102.664 417.642 122.179 417.104 148.318V248.221C417.104 277.404 420.775 298.799 428.115 312.405C435.456 325.833 447.093 332.547 463.027 332.547C478.424 332.547 489.793 326.012 497.134 312.942C504.474 299.694 508.234 279.015 508.413 250.906V154.227ZM846.523 397H755.752V108.035L666.592 134.085V65.335L838.198 5.98438H846.523V397ZM1142.74 245.804C1123.22 263.349 1101.38 272.122 1077.21 272.122C1041.76 272.122 1013.65 260.127 992.886 236.136C972.118 212.145 961.733 180.097 961.733 139.993C961.733 114.928 967.552 91.6533 979.189 70.1689C990.827 48.6846 1007.12 31.6761 1028.07 19.1436C1049.19 6.611 1072.47 0.344727 1097.89 0.344727C1123.67 0.344727 1146.95 6.87956 1167.71 19.9492C1188.66 32.8398 1204.95 51.1911 1216.59 75.0029C1228.23 98.6357 1234.23 125.939 1234.58 156.912V191.556C1234.58 234.703 1226.08 272.122 1209.07 303.812C1192.24 335.501 1168.16 359.85 1136.83 376.858C1105.5 393.867 1068.98 402.371 1027.26 402.371H1021.62V329.861L1038.81 329.593C1101.11 326.549 1135.76 298.619 1142.74 245.804ZM1101.65 206.863C1121.34 206.863 1135.49 198.359 1144.08 181.351V143.753C1144.08 118.688 1139.87 100.158 1131.46 88.1621C1123.05 76.1667 1111.68 70.1689 1097.35 70.1689C1084.64 70.1689 1073.99 76.9723 1065.4 90.5791C1056.8 104.186 1052.5 120.657 1052.5 139.993C1052.5 160.403 1056.89 176.696 1065.66 188.87C1074.44 200.866 1086.43 206.863 1101.65 206.863Z" fill="#F5F5F5"/>
</svg>
