<svg width="16" height="16" viewBox="0 0 16 16" fill="none" xmlns="http://www.w3.org/2000/svg">
<path d="M5.64 14.392C4.97867 14.392 4.48267 14.28 4.152 14.056C3.832 13.8427 3.66667 13.496 3.656 13.016C3.656 12.9093 3.71467 12.856 3.832 12.856C3.896 12.856 4.04 12.8827 4.264 12.936C4.49867 12.9787 4.87733 13 5.4 13C6.616 13 7.71467 12.8347 8.696 12.504C9.688 12.1627 10.4667 11.72 11.032 11.176C11.5973 10.632 11.88 10.056 11.88 9.448C11.88 8.70133 11.4907 8.2 10.712 7.944C9.93333 7.67733 8.94133 7.544 7.736 7.544L6.552 7.56C6.392 8.104 6.248 8.60533 6.12 9.064C6.00267 9.52267 5.896 9.92267 5.8 10.264C5.49067 11.4267 5.27733 12.2107 5.16 12.616C4.84 12.616 4.56267 12.5307 4.328 12.36C4.09333 12.1893 3.976 11.9813 3.976 11.736C3.976 11.544 4.02933 11.2987 4.136 11L4.2 10.808L4.408 10.168C5.592 6.47733 6.60533 3.816 7.448 2.184C6.91467 2.30133 6.36533 2.51467 5.8 2.824C5.74667 2.84533 5.672 2.88267 5.576 2.936C5.48 2.97867 5.41067 3 5.368 3C5.26133 3 5.128 2.92533 4.968 2.776C4.808 2.616 4.728 2.48267 4.728 2.376C5.464 2.07733 6.12 1.85333 6.696 1.704C7.28267 1.55467 7.97067 1.48 8.76 1.48C9.816 1.48 10.7493 1.66133 11.56 2.024C12.3707 2.38667 12.776 3.07467 12.776 4.088C12.776 4.90933 12.4507 5.56533 11.8 6.056C11.16 6.536 10.3707 6.888 9.432 7.112C10.6373 7.272 11.512 7.59733 12.056 8.088C12.6 8.57867 12.872 9.112 12.872 9.688C12.872 10.6587 12.4667 11.5013 11.656 12.216C10.856 12.9307 9.88533 13.4693 8.744 13.832C7.61333 14.2053 6.57867 14.392 5.64 14.392ZM6.712 6.952C8.09867 6.89867 9.25067 6.63733 10.168 6.168C11.096 5.688 11.56 4.952 11.56 3.96C11.56 2.68 10.5573 2.04 8.552 2.04C7.95467 3.192 7.34133 4.82933 6.712 6.952Z" fill="black"/>
</svg>
